<?xml version="1.0"?>
<svg xmlns="http://www.w3.org/2000/svg" xmlns:xlink="http://www.w3.org/1999/xlink" xmlns:svgjs="http://svgjs.com/svgjs" version="1.1" width="512" height="512" x="0" y="0" viewBox="0 0 480 480" style="enable-background:new 0 0 512 512" xml:space="preserve" class=""><g><path xmlns="http://www.w3.org/2000/svg" d="m336 448h-16v16h-304v-448h248v56h56v120h16v-131.199219l-60.800781-60.800781h-275.199219v480h336zm-56-420.800781 28.800781 28.800781h-28.800781zm0 0" fill="#aee1c0" data-original="#000000" style="" class=""/><path xmlns="http://www.w3.org/2000/svg" d="m112 40h112v16h-112zm0 0" fill="#aee1c0" data-original="#000000" style="" class=""/><path xmlns="http://www.w3.org/2000/svg" d="m136 104h160v16h-160zm0 0" fill="#aee1c0" data-original="#000000" style="" class=""/><path xmlns="http://www.w3.org/2000/svg" d="m136 136h160v16h-160zm0 0" fill="#aee1c0" data-original="#000000" style="" class=""/><path xmlns="http://www.w3.org/2000/svg" d="m120 128h-16v16c0 4.800781-3.199219 8-8 8h-32c-4.800781 0-8-3.199219-8-8v-32c0-4.800781 3.199219-8 8-8h16v-16h-16c-13.601562 0-24 10.398438-24 24v32c0 13.601562 10.398438 24 24 24h32c13.601562 0 24-10.398438 24-24zm0 0" fill="#aee1c0" data-original="#000000" style="" class=""/><path xmlns="http://www.w3.org/2000/svg" d="m66.542969 130.140625 40.164062-40.160156 11.3125 11.3125-40.164062 40.164062zm0 0" fill="#aee1c0" data-original="#000000" style="" class=""/><path xmlns="http://www.w3.org/2000/svg" d="m136 224h64v16h-64zm0 0" fill="#aee1c0" data-original="#000000" style="" class=""/><path xmlns="http://www.w3.org/2000/svg" d="m136 256h48v16h-48zm0 0" fill="#aee1c0" data-original="#000000" style="" class=""/><path xmlns="http://www.w3.org/2000/svg" d="m120 248h-16v16c0 4.800781-3.199219 8-8 8h-32c-4.800781 0-8-3.199219-8-8v-32c0-4.800781 3.199219-8 8-8h16v-16h-16c-13.601562 0-24 10.398438-24 24v32c0 13.601562 10.398438 24 24 24h32c13.601562 0 24-10.398438 24-24zm0 0" fill="#aee1c0" data-original="#000000" style="" class=""/><path xmlns="http://www.w3.org/2000/svg" d="m66.542969 250.140625 40.160156-40.164063 11.316406 11.316407-40.164062 40.160156zm0 0" fill="#aee1c0" data-original="#000000" style="" class=""/><path xmlns="http://www.w3.org/2000/svg" d="m136 344h40v16h-40zm0 0" fill="#aee1c0" data-original="#000000" style="" class=""/><path xmlns="http://www.w3.org/2000/svg" d="m136 376h48v16h-48zm0 0" fill="#aee1c0" data-original="#000000" style="" class=""/><path xmlns="http://www.w3.org/2000/svg" d="m40 352v32c0 13.601562 10.398438 24 24 24h32c13.601562 0 24-10.398438 24-24v-16h-16v16c0 4.800781-3.199219 8-8 8h-32c-4.800781 0-8-3.199219-8-8v-32c0-4.800781 3.199219-8 8-8h16v-16h-16c-13.601562 0-24 10.398438-24 24zm0 0" fill="#aee1c0" data-original="#000000" style="" class=""/><path xmlns="http://www.w3.org/2000/svg" d="m66.542969 370.140625 40.160156-40.164063 11.316406 11.3125-40.164062 40.164063zm0 0" fill="#aee1c0" data-original="#000000" style="" class=""/><path xmlns="http://www.w3.org/2000/svg" d="m312 208c-61.601562 0-112 50.398438-112 112s50.398438 112 112 112 112-50.398438 112-112-50.398438-112-112-112zm0 208c-27.199219 0-52.800781-11.199219-71.199219-32l19.199219-38.398438c.800781-2.402343 3.199219-4 5.601562-4l33.597657-8-10.398438-29.601562c0-.800781-.800781-1.601562-.800781-2.398438v-29.601562c0-4.800781 3.199219-8 8-8h32c4.800781 0 8 3.199219 8 8v29.601562c0 .796876 0 1.597657-.800781 2.398438l-9.597657 29.601562 33.597657 8c2.402343.796876 4 2.398438 5.601562 4l19.199219 38.398438c-19.199219 20.800781-44.800781 32-72 32zm81.601562-46.398438-15.203124-31.203124c-3.199219-6.398438-8.796876-11.199219-16-12.796876l-16.796876-4 4.796876-13.601562c.800781-2.398438 1.601562-4.800781 1.601562-8v-28c0-13.601562-10.398438-24-24-24h-32c-13.601562 0-24 10.398438-24 24v29.601562c0 2.398438.800781 4.796876 1.601562 7.199219l4.796876 13.597657-16.796876 4c-7.203124 1.601562-12.800781 6.402343-16 12.800781l-15.203124 31.199219c-28-45.597657-13.597657-104 32-132 45.601562-28 104-13.597657 132 32 18.402343 29.601562 18.402343 68.800781-.796876 99.203124zm0 0" fill="#aee1c0" data-original="#000000" style="" class=""/></g></svg>
