<svg xmlns="http://www.w3.org/2000/svg" width="512" height="512" viewBox="0 0 480 480"><path xmlns="http://www.w3.org/2000/svg" d="M336 448h-16v16H16V16h248v56h56v120h16V60.8008L275.1992 0H0v480h336zM280 27.1992L308.8008 56H280zm0 0" fill="#aee1c0" data-original="#000000"/><path xmlns="http://www.w3.org/2000/svg" d="M112 40h112v16H112zm0 0M136 104h160v16H136zm0 0M136 136h160v16H136zm0 0M120 128h-16v16c0 4.8008-3.1992 8-8 8H64c-4.8008 0-8-3.1992-8-8v-32c0-4.8008 3.1992-8 8-8h16V88H64c-13.6016 0-24 10.3984-24 24v32c0 13.6016 10.3984 24 24 24h32c13.6016 0 24-10.3984 24-24zm0 0" fill="#aee1c0" data-original="#000000"/><path xmlns="http://www.w3.org/2000/svg" d="M66.543 130.1406l40.164-40.1601 11.3125 11.3125-40.164 40.164zm0 0M136 224h64v16h-64zm0 0M136 256h48v16h-48zm0 0M120 248h-16v16c0 4.8008-3.1992 8-8 8H64c-4.8008 0-8-3.1992-8-8v-32c0-4.8008 3.1992-8 8-8h16v-16H64c-13.6016 0-24 10.3984-24 24v32c0 13.6016 10.3984 24 24 24h32c13.6016 0 24-10.3984 24-24zm0 0" fill="#aee1c0" data-original="#000000"/><path xmlns="http://www.w3.org/2000/svg" d="M66.543 250.1406l40.1601-40.164 11.3164 11.3164-40.164 40.1601zm0 0M136 344h40v16h-40zm0 0M136 376h48v16h-48zm0 0M40 352v32c0 13.6016 10.3984 24 24 24h32c13.6016 0 24-10.3984 24-24v-16h-16v16c0 4.8008-3.1992 8-8 8H64c-4.8008 0-8-3.1992-8-8v-32c0-4.8008 3.1992-8 8-8h16v-16H64c-13.6016 0-24 10.3984-24 24zm0 0" fill="#aee1c0" data-original="#000000"/><path xmlns="http://www.w3.org/2000/svg" d="M66.543 370.1406l40.1601-40.164 11.3164 11.3125-40.164 40.164zm0 0M312 208c-61.6016 0-112 50.3984-112 112s50.3984 112 112 112 112-50.3984 112-112-50.3984-112-112-112zm0 208c-27.1992 0-52.8008-11.1992-71.1992-32L260 345.6016c.8008-2.4024 3.1992-4 5.6016-4l33.5976-8L288.8008 304c0-.8008-.8008-1.6016-.8008-2.3984V272c0-4.8008 3.1992-8 8-8h32c4.8008 0 8 3.1992 8 8v29.6016c0 .7968 0 1.5976-.8008 2.3984l-9.5976 29.6016 33.5976 8c2.4024.7968 4 2.3984 5.6016 4L384 384c-19.1992 20.8008-44.8008 32-72 32zm81.6016-46.3984l-15.2032-31.2032c-3.1992-6.3984-8.7968-11.1992-16-12.7968l-16.7968-4L350.3984 308c.8008-2.3984 1.6016-4.8008 1.6016-8v-28c0-13.6016-10.3984-24-24-24h-32c-13.6016 0-24 10.3984-24 24v29.6016c0 2.3984.8008 4.7968 1.6016 7.1992l4.7968 13.5976-16.7968 4c-7.2032 1.6016-12.8008 6.4024-16 12.8008l-15.2032 31.1992c-28-45.5976-13.5976-104 32-132 45.6016-28 104-13.5976 132 32 18.4024 29.6016 18.4024 68.8008-.7968 99.2032zm0 0" fill="#aee1c0" data-original="#000000"/></svg>