<svg xmlns="http://www.w3.org/2000/svg" width="512" height="512" viewBox="0 0 480 480"><path d="M472 4.465H8c-4.418 0-8 3.582-8 8v320c0 4.418 3.582 8 8 8h144.456c.24 2.664.632 5.288 1.104 7.888l-43.88 52.296c-2.842 3.383-2.403 8.429.98 11.271a8.0046 8.0046 0 003.292 1.657l48.304 11.536 19.752 45.6c1.756 4.054 6.466 5.918 10.52 4.162a7.9948 7.9948 0 002.952-2.202l43.808-52.208h1.424l43.808 52.208c2.838 3.386 7.884 3.83 11.27.992a8.0084 8.0084 0 002.202-2.952l19.752-45.6 48.304-11.536c4.298-1.024 6.953-5.338 5.929-9.636a8.0046 8.0046 0 00-1.657-3.292l-43.88-52.296c.472-2.6.864-5.224 1.104-7.888H472c4.418 0 8-3.582 8-8v-320c0-4.419-3.582-8-8-8zm-280.456 448l-16.2-37.36a8.0011 8.0011 0 00-5.48-4.6l-39.6-9.464 28.72-34.232c.152.352.352.672.504 1.024 1.04 2.4 2.168 4.68 3.416 6.944.512.944 1.056 1.872 1.6 2.792a92.7373 92.7373 0 003.488 5.376c.856 1.224 1.752 2.4 2.672 3.6 1.072 1.36 2.176 2.688 3.336 4 1.16 1.312 2.512 2.76 3.848 4.088.984.984 2 1.936 3.04 2.872.864.8 1.64 1.64 2.544 2.4.904.76 1.752 1.272 2.616 1.944.392.304.728.656 1.128.952.72.544 1.48 1.016 2.216 1.536 1.152.8 2.288 1.664 3.48 2.4 2.272 1.456 4.616 2.784 6.992 4 .912.464 1.84.888 2.768 1.32a91.6806 91.6806 0 006.44 2.736c.624.232 1.24.496 1.864.712a86.099 86.099 0 009.248 2.68l.088.024-28.728 34.256zm63.48-49.696a72.5035 72.5035 0 01-11.136 1.464h-.104c-1.264.064-2.528.152-3.8.152-1.272 0-2.536-.088-3.8-.152h-.104a73.054 73.054 0 01-11.112-1.456l-.672-.136c-1.424-.312-2.832-.696-4.224-1.096-.584-.168-1.176-.32-1.752-.504-1-.312-1.984-.68-2.968-1.032s-1.92-.696-2.864-1.088c-.584-.248-1.16-.512-1.736-.8-1.312-.592-2.616-1.192-3.888-1.856l-.64-.352a72.4373 72.4373 0 01-9.44-6.032c-1.664-1.24-3.2-2.608-4.712-3.96a70.7754 70.7754 0 01-5.112-5.048c-.64-.688-1.328-1.344-1.936-2.056a70.2397 70.2397 0 01-6.096-8.344c-.272-.432-.504-.888-.8-1.336a70.0081 70.0081 0 01-4.48-8.856c-.112-.272-.24-.544-.344-.8a71.9344 71.9344 0 01-3.408-10.784c0-.144-.112-.256-.152-.4A72.3732 72.3732 0 01168 332.465c-.024-39.765 32.192-72.019 71.956-72.044 39.765-.024 72.019 32.192 72.044 71.956a72.0233 72.0233 0 01-1.792 16.007c-.04.136-.12.256-.152.392a72.227 72.227 0 01-3.4 10.776c-.112.28-.24.56-.36.8a69.6676 69.6676 0 01-4.464 8.8c-.264.448-.504.92-.8 1.368a70.8972 70.8972 0 01-6.088 8.336c-.6.704-1.28 1.344-1.912 2.032a72.554 72.554 0 01-5.176 5.096c-1.52 1.352-3.032 2.72-4.688 3.952-1.656 1.232-3.136 2.272-4.752 3.304l-.096.056c-1.448.92-2.928 1.768-4.432 2.568-.296.16-.584.328-.88.48-1.208.632-2.4 1.2-3.672 1.752-.64.288-1.272.584-1.92.848-.896.376-1.808.704-2.72 1.032s-2.04.752-3.08 1.072c-.552.176-1.112.328-1.672.488-1.416.4-2.84.8-4.28 1.104l-.64.129zm94.712-1.752l-39.6 9.464a8.0011 8.0011 0 00-5.48 4.6l-16.2 37.384-28.728-34.232h.072a84.2446 84.2446 0 009.28-2.688c.6-.208 1.176-.456 1.776-.672 2.232-.848 4.432-1.776 6.592-2.808.88-.408 1.76-.8 2.624-1.248 2.4-1.248 4.8-2.6 7.104-4.08 1.112-.704 2.176-1.496 3.256-2.256.8-.552 1.6-1.056 2.4-1.64.424-.32.8-.696 1.216-1.024.8-.656 1.728-1.208 2.544-1.896.816-.688 1.648-1.6 2.496-2.352 1.056-.96 2.096-1.928 3.104-2.928a91.6338 91.6338 0 003.824-4.064c1.16-1.312 2.264-2.64 3.344-4 .92-1.176 1.816-2.4 2.672-3.6 1.232-1.744 2.4-3.536 3.48-5.36.56-.928 1.104-1.864 1.6-2.816a82.2346 82.2346 0 003.4-6.92c.144-.408.352-.736.504-1.096l28.72 34.232zM464 324.465H327.592c-4.341-48.38-47.081-84.081-95.461-79.739-42.364 3.802-75.937 37.375-79.739 79.739H16v-304h448v304z" fill="#aee1c0" data-original="#000000" xmlns="http://www.w3.org/2000/svg"/><path d="M40 36.465c-4.418 0-8 3.582-8 8v32h16v-24h24v-16H40zM440 36.465h-32v16h24v24h16v-32c0-4.419-3.582-8-8-8zM432 268.465v24h-24v16h32c4.418 0 8-3.582 8-8v-32h-16zM48 292.465v-24H32v32c0 4.418 3.582 8 8 8h32v-16H48zM144 92.465h192v16H144zM96 140.465h288v16H96zM240 276.465c-30.928 0-56 25.072-56 56 .035 30.913 25.087 55.965 56 56 30.928 0 56-25.072 56-56s-25.072-56-56-56zm0 96c-22.091 0-40-17.909-40-40 .026-22.08 17.92-39.974 40-40 22.091 0 40 17.909 40 40s-17.909 40-40 40z" fill="#aee1c0" data-original="#000000" xmlns="http://www.w3.org/2000/svg"/></svg>