<svg xmlns="http://www.w3.org/2000/svg" width="512" height="512"><defs/><g xmlns="http://www.w3.org/2000/svg"><circle cx="256" cy="436" r="10" fill="#aee1c0" data-original="#000000"/><path d="M420.008 133.838l-160-70a9.9983 9.9983 0 00-8.016 0c-98.115 42.925-159.828 69.925-159.93 69.969-.099.087-6.062 2.425-6.062 9.193v61.72c-11.639 4.128-20 15.243-20 28.28v40c0 5.523 4.478 10 10 10h40c5.522 0 10-4.477 10-10v-40c0-13.036-8.361-24.152-20-28.28v-46.43l60 26.25V253c0 3.954 2.33 7.537 5.944 9.141C173.863 262.992 219.372 283 256 283s82.137-20.008 84.056-20.859C343.67 260.537 346 256.954 346 253v-68.46l74.008-32.378C423.649 150.57 426 146.974 426 143s-2.352-7.569-5.992-9.162zM106 263H86v-30c0-5.514 4.486-10 10-10s10 4.486 10 10zm220-16.678C313.017 251.492 281.276 263 256 263c-25.219 0-57.005-11.514-70-16.682V193.29l65.992 28.872a10.0024 10.0024 0 008.016 0L326 193.29zm-70-44.237c-19.126-8.368-115.908-50.71-135.051-59.085L256 83.915 391.051 143C373.47 150.691 266.242 197.604 256 202.085z" fill="#aee1c0" data-original="#000000"/><path d="M462 203h-86c-5.522 0-10 4.477-10 10s4.478 10 10 10h86c5.522 0 10-4.477 10-10s-4.478-10-10-10zM462 243h-86c-5.522 0-10 4.477-10 10s4.478 10 10 10h86c5.522 0 10-4.477 10-10s-4.478-10-10-10z" fill="#aee1c0" data-original="#000000"/><circle cx="256" cy="10" r="10" fill="#aee1c0" data-original="#000000"/><path d="M502 0H301c-5.522 0-10 4.477-10 10s4.478 10 10 10h191v306H20V20h191c5.522 0 10-4.477 10-10s-4.478-10-10-10H10C4.478 0 0 4.477 0 10v386c0 5.523 4.478 10 10 10h193.937l-16.226 86H156c-5.522 0-10 4.477-10 10s4.478 10 10 10h200c5.522 0 10-4.477 10-10s-4.478-10-10-10h-31.711l-16.226-86H502c5.522 0 10-4.477 10-10V10c0-5.523-4.478-10-10-10zM208.063 492l16.226-86h63.421l16.226 86zM492 386H20v-40h472z" fill="#aee1c0" data-original="#000000"/></g></svg>