<svg xmlns="http://www.w3.org/2000/svg" width="512" height="512" viewBox="0 0 480.0157 480"><defs/><path xmlns="http://www.w3.org/2000/svg" d="M424.0156 120.0078v-80c0-4.418-3.582-8-8-8h-32v16h24v72zm0 0M56.0156 240.0078v200c0 4.418 3.582 8 8 8h320c4.418 0 8-3.582 8-8v-56h-16v48h-304v-192zm0 0M315.3281.8086c-.25-.1133-.4883-.1758-.746-.2656-.668-.2305-1.3634-.3672-2.0704-.414-.1758-.0313-.3281-.1212-.496-.1212h-248c-4.418 0-8 3.582-8 8v16h16v-8h232v64c0 4.418 3.582 8 8 8h64v40h16v-48c0-.168-.086-.3203-.0977-.496a7.7943 7.7943 0 00-.414-2.0704c-.09-.2578-.1524-.496-.2657-.746-.3867-.8712-.9297-1.6642-1.5977-2.3438l-72-72c-.6758-.6446-1.457-1.168-2.3125-1.543zm49.375 71.1992h-44.6875V27.3203zm0 0" fill="#aee1c0" data-original="#000000"/><path xmlns="http://www.w3.org/2000/svg" d="M184.0156 336.0078v64c0 4.418 3.582 8 8 8h104v-16h-96v-48h40v-16h-48c-4.418 0-8 3.582-8 8zm0 0" fill="#aee1c0" data-original="#000000"/><path xmlns="http://www.w3.org/2000/svg" d="M216.0156 360.0078h48v16h-48zm0 0" fill="#aee1c0" data-original="#000000"/><path xmlns="http://www.w3.org/2000/svg" d="M424.0156 136.0078c-30.9101.039-55.961 25.0899-56 56v.8008l-40.8008 43.0703-25.543-25.543c-3.125-3.125-8.1874-3.125-11.3124 0l-72 72c-3.1211 3.125-3.1211 8.1875 0 11.3125l112 112c3.125 3.1211 8.1875 3.1211 11.3125 0l24-24 42.3437-42.328v124.6874h-312v16h320c4.418 0 8-3.582 8-8v-192h-16v36.6875l-27.8867-27.8867 43.086-40.8008h.8007c30.9297 0 56-25.0703 56-56s-25.0703-56-56-56zm-88 252.6875L235.3281 288.0078l12.6875-12.6875 100.6875 100.6875zm60.6875-60.6875l-36.6875 36.6875-100.6875-100.6875 36.6875-36.6875 20.1914 20.1914-18 18.9922c-3.0078 3.1524-2.9375 8.129.1524 11.1992l40 40c3.0625 3.0625 8.0078 3.129 11.1523.1524l19-18zm27.3125-96h-4c-2.0469 0-4.0156.7852-5.5039 2.1914l-70.3437 66.6094-28.9532-28.9531 66.6407-70.3438c1.3984-1.4922 2.168-3.461 2.1601-5.5039v-4c0-22.0898 17.9102-40 40-40s40 17.9102 40 40c0 22.0899-17.9101 40-40 40zm0 0M152.0156 232.0078h80v16h-80zm0 0M104.0156 264.0078h96v16h-96zm0 0M176.0156 200.0078h96v16h-96zm0 0M104.0156 296.0078h48v16h-48zm0 0M104.0156 328.0078h64v16h-64zm0 0" fill="#aee1c0" data-original="#000000"/><path xmlns="http://www.w3.org/2000/svg" d="M104.0156 360.0078h64v16h-64zm0 0M104.0156 392.0078h64v16h-64zm0 0M104.0156 232.0078h32v16h-32zm0 0M168.0156 296.0078h32v16h-32zm0 0M200.0156 160.0078h80v16h-80zm0 0" fill="#aee1c0" data-original="#000000"/><path xmlns="http://www.w3.org/2000/svg" d="M96.0156 224.0078c51.668-.0586 94.0235-41.0039 95.832-92.6406 4.3204 3.6172 9.9024 5.3633 15.5118 4.8476a21.6965 21.6965 0 0033.3125 0 21.698 21.698 0 0017.2812-6.2695 21.698 21.698 0 006.2696-17.2812c4.9414-4.1211 7.793-10.2227 7.793-16.6563 0-6.4336-2.8516-12.5351-7.793-16.6562a21.698 21.698 0 00-6.2696-17.2813 21.698 21.698 0 00-17.2812-6.2695 21.6965 21.6965 0 00-33.3125 0 21.698 21.698 0 00-17.2813 6.2695 21.698 21.698 0 00-6.2695 17.2813 20.7697 20.7697 0 00-3.1992 3.2968C158.414 41.25 109.5274 21.9922 65.0625 37.129 20.5977 52.2695-6.3867 97.3555 1.2891 143.6953c7.6757 46.3399 47.7578 80.3203 94.7265 80.3125zm99.7266-133.2812a7.9997 7.9997 0 004.711-4.4727c.8632-2.0898.8046-4.4492-.1641-6.4922-1.0391-2.1484-.6055-4.7148 1.078-6.4023 1.6876-1.6836 4.254-2.1172 6.4024-1.0781 2.043.9687 4.4024 1.0273 6.4922.164a7.9997 7.9997 0 004.4727-4.711c.793-2.2382 2.9062-3.7343 5.2812-3.7343s4.4883 1.496 5.2813 3.7344a7.9997 7.9997 0 004.4726 4.711 8.0244 8.0244 0 006.4961-.1642c2.1446-1.039 4.711-.6054 6.3985 1.0782 1.6836 1.6875 2.1172 4.2539 1.078 6.4023-.9687 2.043-1.0273 4.4024-.164 6.4922a7.9997 7.9997 0 004.711 4.4727c2.2382.793 3.7343 2.9062 3.7343 5.2812s-1.496 4.4883-3.7343 5.2813a7.9997 7.9997 0 00-4.711 4.4726 8.0244 8.0244 0 00.164 6.4961c1.1056 2.1367.6563 4.75-1.1015 6.3984-1.6562 1.7422-4.2578 2.1876-6.4023 1.1055a7.9837 7.9837 0 00-6.4922-.164c-2.0899.8632-3.7149 2.5742-4.4727 4.707-.793 2.2383-2.9101 3.7344-5.2812 3.7344-2.375 0-4.4883-1.4961-5.2813-3.7344a7.9798 7.9798 0 00-4.4804-4.711 8.1563 8.1563 0 00-3.0625-.6093 7.834 7.834 0 00-3.4258.8008c-2.1445 1.0351-4.711.6015-6.3984-1.082-1.6836-1.6876-2.1172-4.254-1.0782-6.3985.9688-2.043 1.0274-4.4024.164-6.4922a7.9948 7.9948 0 00-4.7108-4.4766c-2.2383-.789-3.7344-2.9062-3.7344-5.2812 0-2.3711 1.496-4.4883 3.7344-5.2774zM96.0156 48.0078c44.1836 0 80 35.8164 80 80s-35.8164 80-80 80-80-35.8164-80-80c.0469-44.164 35.836-79.9531 80-80zm0 0" fill="#aee1c0" data-original="#000000"/><path xmlns="http://www.w3.org/2000/svg" d="M58.3594 173.664c3.125 3.1212 8.1875 3.1212 11.3125 0l80-80-11.3125-11.3124-74.3438 74.3437-18.3437-18.3437-11.3125 11.3125zm0 0" fill="#aee1c0" data-original="#000000"/></svg>