<svg xmlns="http://www.w3.org/2000/svg" width="512" height="512" viewBox="0 0 495.962 495"><defs/><path xmlns="http://www.w3.org/2000/svg" d="M384 344.4805c44.1133 0 80-35.8867 80-80s-35.8867-80-80-80-80 35.8867-80 80 35.8867 80 80 80zm0-144c35.289 0 64 28.711 64 64s-28.711 64-64 64-64-28.711-64-64 28.711-64 64-64zm0 0" fill="#aee1c0" data-original="#000000"/><path xmlns="http://www.w3.org/2000/svg" d="M473.8633 324.5273c12.2265-8.8476 18.5195-24.0312 16.1523-38.9492 7.9375-12.8984 7.9219-29.4101 0-42.211 2.3672-14.9023-3.918-30.0702-16.1445-38.9257-3.5274-14.832-15.336-26.5508-29.8477-29.8633-8.8554-12.1992-24.039-18.4883-38.918-16.1133-12.9452-7.9609-29.5038-7.9101-42.2265 0-14.918-2.3515-30.0625 3.9297-38.9102 16.1446-7.7773 1.8554-14.6484 6.0312-19.9609 11.6875V.4805H76.6875L0 77.168v331.3125h299.625l-24.2813 77.6797 50.7266-20.297 29.8906 29.8829L384 397.617l28.039 98.1368 29.8907-29.8828 50.7265 20.2969-41.9218-134.129c11.4492-5.0234 20.1875-15.1484 23.1289-27.5117zm-168.457-108.375l3.3359-2.0078.539-3.8164c1.504-10.6133 9.957-19.0703 20.8165-20.6133l3.6875-.6171 1.8867-3.2149c5.457-9.2578 16.5351-13.8672 26.9219-11.1601l3.789.918 3.082-2.3126c8.5665-6.4218 20.5118-6.4218 29.4141.2422l3 2.0625 3.5274-.9101c10.4335-2.6914 21.4804 1.9023 26.9296 11.1601l2 3.3281 3.8164.543c10.6172 1.504 19.0782 9.9688 20.6016 20.7188l.5742 3.7539 3.2735 1.9257c9.246 5.4493 13.832 16.5118 11.1601 26.922l-.9297 3.7812 2.3203 3.082c6.4336 8.5586 6.4336 20.5195 0 29.0781l-2.25 3.5469.8594 3.3281c2.6797 10.3985-1.9062 21.4688-11.168 26.918l-3.3359 2.0078-.539 3.8164c-1.504 10.6172-9.957 19.0703-20.8165 20.6172l-3.6875.6133-1.8867 3.2187c-5.4648 9.2617-16.5351 13.8633-26.9218 11.1602l-3.7891-.9219-3.082 2.3125c-8.5586 6.4336-20.504 6.4414-29.4141-.2383l-3-2.0664-3.5273.914c-10.4258 2.6954-21.4805-1.9062-26.9297-11.16l-2-3.3282-3.8164-.543c-10.6172-1.5078-19.0782-9.9687-20.6016-20.7226l-.5742-3.75-3.2735-1.9297c-9.246-5.4492-13.832-16.5117-11.1601-26.918l.9297-3.7851-2.3203-3.082c-6.4336-8.5587-6.4336-20.5196.4335-29.711l1.8243-2.9102-.8594-3.328c-2.6875-10.4024 1.9062-21.4727 11.1602-26.922zM72 27.793v44.6875H27.3125zM16 392.4805v-304h72v-72h200v193.586c-8.0625 8.9335-11.9453 21.1835-10.0156 33.3124-7.9375 12.8945-7.9219 29.4063 0 42.207-1.9297 12.1172 1.9531 24.3594 10.0156 33.297v73.5976zm288-49.7774c3.7344 3.9922 8.2305 7.1953 13.246 9.379L304 394.4647zm44.0469 122.5078l-18.1172-18.121-29.2735 11.703 30.3282-97.0624c8.793 7.2148 20.4062 10.582 31.9101 8.7578 3.418 2.1054 7.1055 3.6094 10.8907 4.6015zm90.0234-18.1132l-18.1172 18.121-25.7383-90.0976c3.8086-.9844 7.4961-2.4961 10.9063-4.6172 11.4805 1.8164 23.0937-1.543 31.8867-8.7578l30.3281 97.0625zm0 0" fill="#aee1c0" data-original="#000000"/><path xmlns="http://www.w3.org/2000/svg" d="M384 312.4805c22.0547 0 40-14.3516 40-32 0-17.6485-17.9453-32-40-32s-40 14.3515-40 32c0 17.6484 17.9453 32 40 32zm0-48c13.0078 0 24 7.328 24 16s-10.9922 16-24 16-24-7.3282-24-16 10.9922-16 24-16zm0 0M392 224.4805c0 4.418-3.582 8-8 8s-8-3.582-8-8 3.582-8 8-8 8 3.582 8 8zm0 0M357.6563 246.1367c3.1289-3.1289 3.1289-8.1914 0-11.3125-3.129-3.1289-8.1915-3.1289-11.3125 0-3.129 3.129-3.129 8.1914 0 11.3125 3.121 3.129 8.1914 3.129 11.3125 0zm0 0M421.6563 246.1367c3.1289-3.1289 3.1289-8.1914 0-11.3125-3.129-3.1289-8.1915-3.1289-11.3125 0-3.129 3.129-3.129 8.1914 0 11.3125 3.121 3.129 8.1914 3.129 11.3125 0zm0 0M32 248.4805h112v-144H32zm16-128h80v112H48zm0 0M160 32.4805h16v16h-16zm0 0M192 32.4805h80v16h-80zm0 0M160 64.4805h16v16h-16zm0 0M192 64.4805h80v16h-80zm0 0M160 136.4805h112v16H160zm0 0M160 168.4805h112v16H160zm0 0M160 200.4805h96v16h-96zm0 0M32 264.4805h112v16H32zm0 0M32 296.4805h112v16H32zm0 0M32 328.4805h112v16H32zm0 0M32 360.4805h112v16H32zm0 0M160 264.4805h96v16h-96zm0 0M160 296.4805h96v16h-96zm0 0M160 328.4805h112v16H160zm0 0M160 360.4805h112v16H160zm0 0" fill="#aee1c0" data-original="#000000"/></svg>