<svg xmlns="http://www.w3.org/2000/svg" width="512" height="512" viewBox="0 0 480 480"><defs/><path fill="#102202" data-original="#000000" d="M168 160h16v16h-16zM168 192h16v16h-16zM168 224h16v16h-16zM168 256h16v16h-16zM200 160h16v16h-16zM200 192h16v16h-16zM200 224h16v16h-16zM200 256h16v16h-16zM232 160h16v16h-16zM232 192h16v16h-16zM232 224h16v16h-16zM232 256h16v16h-16zM264 160h16v16h-16zM200 128h16v16h-16zM232 128h16v16h-16zM264 128h16v16h-16zM264 192h16v16h-16zM264 224h16v16h-16zM264 256h16v16h-16zM296 160h16v16h-16zM296 192h16v16h-16zM296 224h16v16h-16zM296 256h16v16h-16z" xmlns="http://www.w3.org/2000/svg"/><path d="M472.009 120H352V8c.003-4.416-3.575-7.997-7.991-8H136c-4.416-.003-7.997 3.575-8 7.991V120H8c-4.416-.003-7.997 3.575-8 7.991V416c-.003 4.416 3.575 7.997 7.991 8h16.732a48.008 48.008 0 00-.723 8v40c-.003 4.416 3.575 7.997 7.991 8H448c4.416.003 7.997-3.575 8-7.991V432a47.7967 47.7967 0 00-.723-8H472c4.416.003 7.997-3.575 8-7.991V128c.003-4.416-3.575-7.997-7.991-8zM344 344c0 8.837-7.163 16-16 16s-16-7.163-16-16 7.163-16 16-16c8.832.011 15.989 7.168 16 16zm-192-16c8.837 0 16 7.163 16 16s-7.163 16-16 16-16-7.163-16-16c.011-8.832 7.168-15.989 16-16zm-48 136H40v-32c0-17.673 14.327-32 32-32s32 14.327 32 32v32zm-48-96c0-8.837 7.163-16 16-16s16 7.163 16 16-7.163 16-16 16c-8.832-.011-15.989-7.168-16-16zm49.212 29.425c-3.017-2.91-6.4-5.414-10.064-7.449 12.202-12.784 11.731-33.04-1.053-45.243s-33.04-11.731-45.243 1.053c-11.803 12.365-11.803 31.824 0 44.189a48.3101 48.3101 0 00-18.358 18.024H16V136h112v187.056c-10.986 12.327-10.615 31.039.852 42.92-12 6.637-20.599 18.077-23.64 31.449zM184 464h-64v-56c0-17.673 14.327-32 32-32s32 14.327 32 32v56zm96 0h-80v-56c0-22.091 17.909-40 40-40s40 17.909 40 40v56zm-64-136c0-13.255 10.745-24 24-24s24 10.745 24 24-10.745 24-24 24c-13.249-.014-23.986-10.751-24-24zm72.722 52.495a56.3493 56.3493 0 00-22.953-22.16c16.897-14.232 19.057-39.467 4.826-56.364-14.232-16.897-39.467-19.057-56.364-4.826-16.897 14.232-19.057 39.467-4.826 56.364a39.997 39.997 0 004.826 4.826 56.3493 56.3493 0 00-22.953 22.16c-4.206-6-9.722-10.965-16.13-14.519 12.265-12.547 12.037-32.662-.511-44.927-8.079-7.898-19.744-10.91-30.637-7.913V16h192v297.136a31.6323 31.6323 0 00-8-1.136c-17.626-.047-31.953 14.204-32 31.831a31.9156 31.9156 0 008.852 22.145 48.3185 48.3185 0 00-16.13 14.519zM360 432v32h-64v-56c0-17.673 14.327-32 32-32 17.673 0 32 14.327 32 32v24zm80 32h-64v-32c0-17.673 14.327-32 32-32 17.673 0 32 14.327 32 32v32zm-48-96c0-8.837 7.163-16 16-16s16 7.163 16 16-7.163 16-16 16c-8.832-.011-15.989-7.168-16-16zm72 40h-14.494a48.3101 48.3101 0 00-18.358-18.024c12.202-12.784 11.731-33.04-1.053-45.243-12.784-12.202-33.04-11.731-45.243 1.053-11.803 12.365-11.803 31.824 0 44.189a48.1985 48.1985 0 00-10.064 7.449c-3.04-13.372-11.64-24.812-23.64-31.449 11.467-11.881 11.839-30.593.853-42.92V136h112v272z" fill="#102202" data-original="#000000" xmlns="http://www.w3.org/2000/svg"/><path fill="#102202" data-original="#000000" d="M376 184h16v128h-16zM424 184h16v128h-16zM40 184h16v128H40zM88 184h16v128H88zM288.009 32H192c-4.416-.003-7.997 3.575-8 7.991V104c-.003 4.416 3.575 7.997 7.991 8H288c4.416.003 7.997-3.575 8-7.991V40c.003-4.416-3.575-7.997-7.991-8zM280 96h-80V48h80v48z" xmlns="http://www.w3.org/2000/svg"/></svg>