<svg xmlns="http://www.w3.org/2000/svg" width="512" height="512" viewBox="0 0 64 64"><defs/><path xmlns="http://www.w3.org/2000/svg" d="M56.869 35.558l.2-.4a5.711 5.711 0 00-1.947-7.274l-.461-.31A3.724 3.724 0 0153 24.48v-1a8.945 8.945 0 00-.45-2.8 1 1 0 10-1.9.625A6.961 6.961 0 0151 23.48v1c0 .028.005.055.005.082A3.811 3.811 0 0048 23c-.025 0-.048.008-.073.008a10.063 10.063 0 00-4.662-7.56 7.311 7.311 0 012.824 1.039l1.591 1a6.6 6.6 0 011.1.853 1 1 0 101.377-1.451 8.617 8.617 0 00-1.428-1.1l-1.58-.99a8.878 8.878 0 00-9.345-.178 7.916 7.916 0 00-.882.655c-.141-.04-.281-.083-.424-.112a6.867 6.867 0 00-8.227 8.264l.5 2.414a2.054 2.054 0 01-.268 1.506l-1.469 2.364a4.049 4.049 0 00-.212 3.9l.574 1.2a2.064 2.064 0 01-.075 1.927 4.044 4.044 0 00.322 4.553 1 1 0 001.573-1.235 2.054 2.054 0 01-.165-2.315 4.061 4.061 0 00.149-3.8l-.574-1.2a2.055 2.055 0 01.107-1.98L30.2 28.4a4.045 4.045 0 00.527-2.967l-.5-2.414a4.849 4.849 0 015.26-5.987A4.315 4.315 0 0035 19a4.123 4.123 0 00.1.85 11.058 11.058 0 00-3.1 7.659V30a8 8 0 004 6.918v.682a9.264 9.264 0 00-4.416 3.513l-5.443 5.443-.2-2.053A4.985 4.985 0 0020.96 40H7a5 5 0 00-4.975 5.5l.355 3.553a1 1 0 001.991-.2L4.016 45.3A3 3 0 017 42h13.96a2.989 2.989 0 012.985 2.7l1.42 14.2a1 1 0 01-.994 1.1H8.2a2.991 2.991 0 01-2.985-2.7l-.446-4.467a1 1 0 00-1.991.2l.447 4.467A4.985 4.985 0 008.2 62H49a6.006 6.006 0 006-6v-6a1 1 0 00-2 0v6a4 4 0 01-4 4H38v-3.087L48.09 56a1 1 0 00.91-1v-8a1 1 0 00-2 0v7.087L36.953 55h-2a8.9 8.9 0 00-1.644-4.669A6.934 6.934 0 0132 46.261a7.283 7.283 0 014.076-6.511A4 4 0 0040 43a6 6 0 005.65-4H46a7.008 7.008 0 017 7 1 1 0 002 0c0-.175-.016-.346-.026-.519a5.707 5.707 0 001.813-6.811 3.654 3.654 0 01.082-3.112zM28.009 56L32 52.01a6.894 6.894 0 01.969 3.142 3.97 3.97 0 00-1.587.848zm2.024-10.509c-.022.255-.033.511-.033.77a8.918 8.918 0 00.936 3.984l-4.024 4.023-.512-5.142zM27.285 58h2.857A3.939 3.939 0 0030 59v1h-2.808a2.991 2.991 0 00.163-1.3zM36 60h-4v-1a2 2 0 012-2h2zm14-32.5a2.3 2.3 0 01-2 2.5 2.3 2.3 0 01-2-2.5 2.3 2.3 0 012-2.5 2.3 2.3 0 012 2.5zM38.869 16.309a6.029 6.029 0 01.743-.388l1.479.635A8.086 8.086 0 0145.9 22.73a3.643 3.643 0 00-1.741-.395 9.114 9.114 0 01-7.049-3.008.89.89 0 00-.079-.058A2.077 2.077 0 0137 19a3.393 3.393 0 011.869-2.691zM34 30v-2.491a9.066 9.066 0 012.361-6.1 11.3 11.3 0 007.848 2.925 1.648 1.648 0 01.817.185A4.783 4.783 0 0044 27.5a4.868 4.868 0 00.621 2.383l-.77.554A8.266 8.266 0 0139 32a1 1 0 000 2 10.251 10.251 0 006.019-1.94l.769-.554A5.989 5.989 0 0134 30zm6 11a2 2 0 01-2-2v-1.263a7.9 7.9 0 006-.812V37a4 4 0 01-4 4zm15.271-6.728l-.2.4a5.642 5.642 0 00-.125 4.791 3.724 3.724 0 01-.423 3.679A9.011 9.011 0 0046 37v-1.712a7.951 7.951 0 001.745-3.317c.086.006.168.029.255.029a4.248 4.248 0 003.984-4.328 5.76 5.76 0 001.558 1.558l.464.313a3.709 3.709 0 011.265 4.729z" fill="#102202" data-original="#000000"/><path xmlns="http://www.w3.org/2000/svg" d="M17 51a3 3 0 10-3 3 3 3 0 003-3zm-4 0a1 1 0 111 1 1 1 0 01-1-1zM7 29h5.586l6.707 6.707A1 1 0 0020 36a.987.987 0 00.383-.076A1 1 0 0021 35v-6a5.006 5.006 0 005-5V14a5.006 5.006 0 00-5-5 1 1 0 000 2 3 3 0 013 3v10a3 3 0 01-3 3h-1a1 1 0 00-1 1v4.586l-5.293-5.293A1 1 0 0013 27H7a3 3 0 01-3-3V14a3 3 0 013-3h10a1 1 0 000-2H7a5.006 5.006 0 00-5 5v10a5.006 5.006 0 005 5z" fill="#102202" data-original="#000000"/><path xmlns="http://www.w3.org/2000/svg" d="M9 13a2.987 2.987 0 00-2.22 5A2.981 2.981 0 006 20v2a1 1 0 001 1h4a1 1 0 001-1v-2a2.981 2.981 0 00-.78-2A2.987 2.987 0 009 13zm0 2a1 1 0 11-1 1 1 1 0 011-1zm1 6H8v-1a1 1 0 012 0zM21 13h-3a1 1 0 000 2h3a1 1 0 000-2zM21 17h-6a1 1 0 000 2h6a1 1 0 000-2zM21 21h-6a1 1 0 000 2h6a1 1 0 000-2z" fill="#102202" data-original="#000000"/><circle xmlns="http://www.w3.org/2000/svg" cx="36" cy="27" r="1" fill="#102202" data-original="#000000"/><circle xmlns="http://www.w3.org/2000/svg" cx="41" cy="27" r="1" fill="#102202" data-original="#000000"/><path xmlns="http://www.w3.org/2000/svg" d="M44.03 47.758l-.03.119A4.116 4.116 0 0140 51a1 1 0 000 2 6.113 6.113 0 005.94-4.639l.03-.119a1 1 0 10-1.94-.484z" fill="#102202" data-original="#000000"/></svg>