<?xml version="1.0"?>
<svg xmlns="http://www.w3.org/2000/svg" xmlns:xlink="http://www.w3.org/1999/xlink" xmlns:svgjs="http://svgjs.com/svgjs" version="1.1" width="512" height="512" x="0" y="0" viewBox="0 0 64 64" style="enable-background:new 0 0 512 512" xml:space="preserve" class=""><g><g xmlns="http://www.w3.org/2000/svg" id="Dimond"><path d="m4 42h8v18h-8z" fill="#0eb04d" data-original="#000000" style="" class=""/><path d="m18 56.38 2.18 1.09a4.956 4.956 0 0 0 2.24.53h14.97a4.982 4.982 0 0 0 2.5-.67l16.8-9.7a2 2 0 0 0 .72-2.73 2.025 2.025 0 0 0 -2.72-.73l-10.07 5.81a4.118 4.118 0 0 1 -.11 1.35 3.975 3.975 0 0 1 -1.87 2.43 3.916 3.916 0 0 1 -1.99.54 4.072 4.072 0 0 1 -1.04-.14l-11.93-3.19a1 1 0 0 1 .52-1.94l11.93 3.2a1.95 1.95 0 0 0 1.51-.2 1.991 1.991 0 0 0 -.48-3.66l-14.92-4a4.963 4.963 0 0 0 -2.51-.02l-5.73 1.43z" fill="#0eb04d" data-original="#000000" style="" class=""/><path d="m14 44h2v14h-2z" fill="#0eb04d" data-original="#000000" style="" class=""/><path d="m43.02 9.24-4.4 8.76h8.77z" fill="#0eb04d" data-original="#000000" style="" class=""/><path d="m37 16.76 4.4-8.76h-8.76z" fill="#0eb04d" data-original="#000000" style="" class=""/><path d="m38.28 20 4.72 18.88 4.72-18.88z" fill="#0eb04d" data-original="#000000" style="" class=""/><path d="m53.4 8h-8.76l4.36 8.76z" fill="#0eb04d" data-original="#000000" style="" class=""/><path d="m35.39 18-4.37-8.76-4.4 8.76z" fill="#0eb04d" data-original="#000000" style="" class=""/><path d="m49.78 20-4.62 18.48 13.84-18.48z" fill="#0eb04d" data-original="#000000" style="" class=""/><path d="m55.02 9.24-4.4 8.76h8.77z" fill="#0eb04d" data-original="#000000" style="" class=""/><path d="m36.22 20h-9.22l13.82 18.4z" fill="#0eb04d" data-original="#000000" style="" class=""/></g></g></svg>
