<svg xmlns="http://www.w3.org/2000/svg" width="512" height="512" viewBox="0 0 365.696 365.696"><defs/><path xmlns="http://www.w3.org/2000/svg" d="M243.1875 182.8594L356.3203 69.7266c12.5-12.5 12.5-32.7657 0-45.2461l-15.082-15.082c-12.504-12.504-32.7695-12.504-45.25 0l-113.129 113.1288L69.7267 9.375c-12.5-12.5-32.7657-12.5-45.2461 0L9.375 24.457c-12.5 12.504-12.5 32.7696 0 45.25l113.1523 113.1524L9.3984 295.9883c-12.5039 12.5039-12.5039 32.7695 0 45.25l15.082 15.082c12.5 12.5 32.7657 12.5 45.2462 0l113.1328-113.1328 113.1289 113.1328c12.5039 12.5 32.7695 12.5 45.25 0l15.082-15.082c12.5-12.504 12.5-32.7695 0-45.25zm0 0" fill="#92ddaf" data-original="#000000"/></svg>