<svg xmlns="http://www.w3.org/2000/svg" width="512" height="512" viewBox="0 0 384.97 384.97"><defs/><circle r="192.485" cx="192.485" cy="192.485" fill="#92ddaf"/><g xmlns="http://www.w3.org/2000/svg"><g fill="#fff"><path d="M66.1663 141.9576h252.6363c4.6487 0 8.421-3.773 8.421-8.421 0-4.6487-3.773-8.421-8.421-8.421H66.1663c-4.6487 0-8.421 3.773-8.421 8.421s3.773 8.421 8.421 8.421zM318.8026 184.064H66.1663c-4.6487 0-8.421 3.773-8.421 8.421s3.773 8.421 8.421 8.421h252.6363c4.6487 0 8.421-3.773 8.421-8.421s-3.7723-8.421-8.421-8.421zM318.8026 243.0124H150.3784c-4.6487 0-8.421 3.773-8.421 8.421 0 4.6487 3.773 8.421 8.421 8.421h168.4242c4.6487 0 8.421-3.773 8.421-8.421.0007-4.6487-3.7723-8.421-8.421-8.421z" data-original="#000000"/></g></g></svg>