<svg xmlns="http://www.w3.org/2000/svg" width="512" height="512" viewBox="0 0 24 24"><g fill="#aee1c0"><path xmlns="http://www.w3.org/2000/svg" d="M18.5 24H.5a.5002.5002 0 01-.439-.74l9-16.5c.175-.321.703-.321.878 0l9 16.5a.5002.5002 0 01-.439.74zM1.342 23h16.315L9.5 8.044z" data-original="#000000"/><path xmlns="http://www.w3.org/2000/svg" d="M23.5 24h-5c-.276 0-.5-.224-.5-.5s.224-.5.5-.5h4.154l-4.625-8.41-1.906 3.944a.4991.4991 0 01-.668.232.4989.4989 0 01-.232-.668l2.328-4.816c.082-.168.25-.277.437-.282.188.009.361.095.451.259l5.5 10c.085.155.083.343-.008.495A.5006.5006 0 0123.5 24zM9.5 7.5c-.276 0-.5-.224-.5-.5V.5c0-.276.224-.5.5-.5h6a.5.5 0 01.462.309c.078.187.035.402-.108.545L14.207 2.5l1.646 1.646c.143.143.186.358.108.545A.4976.4976 0 0115.5 5H10v2c0 .276-.224.5-.5.5zM10 4h4.293l-1.146-1.146a.5003.5003 0 010-.707L14.293 1H10zM11 15c-.012 0-.023 0-.036-.001a.4974.4974 0 01-.364-.199l-1.1-1.466L8.4 14.8a.5026.5026 0 01-.364.199c-.151.012-.287-.042-.389-.145l-1.68-1.68c-.195-.195-.195-.512 0-.707s.512-.195.707 0l1.272 1.272L9.1 12.2c.188-.252.611-.252.8 0l1.154 1.539 1.272-1.272c.195-.195.512-.195.707 0s.195.512 0 .707l-1.68 1.68A.4988.4988 0 0111 15z" data-original="#000000"/></g></svg>