<svg xmlns="http://www.w3.org/2000/svg" width="512" height="512"><g xmlns="http://www.w3.org/2000/svg"><path d="M15 91c8.284 0 15-6.716 15-15V30h46c8.284 0 15-6.716 15-15S84.284 0 76 0H15C6.716 0 0 6.716 0 15v61c0 8.284 6.716 15 15 15zM15 512h61c8.284 0 15-6.716 15-15s-6.716-15-15-15H30v-46c0-8.284-6.716-15-15-15s-15 6.716-15 15v61c0 8.284 6.716 15 15 15zM497 91c8.284 0 15-6.716 15-15V15c0-8.284-6.716-15-15-15h-61c-8.284 0-15 6.716-15 15s6.716 15 15 15h46v46c0 8.284 6.716 15 15 15zM497 421c-8.284 0-15 6.716-15 15v46h-46c-8.284 0-15 6.716-15 15s6.716 15 15 15h61c8.284 0 15-6.716 15-15v-61c0-8.284-6.716-15-15-15zM256 361c57.897 0 105-47.103 105-105s-47.103-105-105-105-105 47.103-105 105 47.103 105 105 105zm0-180c41.355 0 75 33.645 75 75s-33.645 75-75 75-75-33.645-75-75 33.645-75 75-75z" fill="#aee1c0" data-original="#000000"/><path d="M256 301c24.813 0 45-20.187 45-45s-20.187-45-45-45-45 20.187-45 45 20.187 45 45 45zm0-60c8.271 0 15 6.729 15 15s-6.729 15-15 15-15-6.729-15-15 6.729-15 15-15z" fill="#aee1c0" data-original="#000000"/><path d="M76.023 342.381C126.615 385.814 189.1 421 256 421c66.903 0 129.389-35.19 179.977-78.619 44.516-38.216 72.029-76.003 73.179-77.593 3.793-5.246 3.793-12.332 0-17.577-1.149-1.59-28.663-39.377-73.179-77.593C385.385 126.186 322.9 91 256 91c-66.903 0-129.389 35.19-179.977 78.619-44.516 38.216-72.029 76.003-73.179 77.593-3.793 5.246-3.793 12.332 0 17.577 1.15 1.589 28.664 39.377 73.179 77.592zM256 121c63.673 0 122.116 38.583 159.933 70.951 29.612 25.345 51.609 51.001 62.093 64.044-10.341 12.847-31.897 37.957-61.025 63.071C375.292 355.028 318.06 391 256 391c-63.673 0-122.116-38.583-159.933-70.951-29.614-25.347-51.612-51.004-62.093-64.044C44.315 243.158 65.872 218.049 95 192.934 136.708 156.972 193.94 121 256 121z" fill="#aee1c0" data-original="#000000"/></g></svg>