<svg data-name="Layer 1" xmlns="http://www.w3.org/2000/svg" width="743.7036" height="416.5"><path d="M515.7858 132.1553h-14.1357a1.8178 1.8178 0 01-1.8157-1.647l-2.8295-29.0017h23.4261l-2.8294 29.0014a1.8178 1.8178 0 01-1.8158 1.6473z" fill="#e6e6e6"/><path d="M520.3936 105.1553h-23.3513a1.8265 1.8265 0 01-1.8243-1.8244v-4.3784a1.8265 1.8265 0 011.8243-1.8243h23.3513a1.8265 1.8265 0 011.8244 1.8243v4.3784a1.8265 1.8265 0 01-1.8244 1.8243z" fill="#ccc"/><path d="M350.4005 101h-56V84c17.6958-12.3148 33.3745-11.2444 54 1z" fill="#aee1c0"/><path fill="#ffb8b8" d="M281.433 402.957l-12.26-.001-1.833-47.288 14.095.001-.002 47.288z"/><path d="M284.559 414.8406l-39.5304-.0014v-.5a15.386 15.386 0 0115.3864-15.3863h.001l24.1438.001z" fill="#2f2e41"/><path fill="#ffb8b8" d="M350.486 402.957l12.26-.001 1.833-47.288-14.095.001.002 47.288z"/><path d="M347.3593 398.954l24.1438-.001h.001a15.386 15.386 0 0115.3864 15.3862v.5l-39.5305.0014zM350.8084 396.896a4.52 4.52 0 01-4.394-3.5225l-30.3865-132.539a1.4573 1.4573 0 00-1.4641-1.1739h-.0076a1.4583 1.4583 0 00-1.4602 1.1885l-27.9045 131.6455a4.5216 4.5216 0 01-4.4024 3.5664h-13.2927a4.5001 4.5001 0 01-4.4922-4.7656l9.9009-166.8555 3.9841-1.1787.0747.001 78.2581.6846 16.6675 166.6719a4.4979 4.4979 0 01-4.1165 4.9218l-16.604 1.3409q-.1812.0146-.3606.0146z" fill="#2f2e41"/><circle cx="318.491" cy="45.9709" r="24.561" fill="#ffb8b8"/><path d="M303.4449 242.7339a42.393 42.393 0 01-12.7275-1.791 28.097 28.097 0 01-17.0381-14.375 4.5053 4.5053 0 01-.335-3.3545c2.7087-9.2451 15.7986-57.3008 7.4468-95.503a40.4849 40.4849 0 015.755-31.1142 39.9767 39.9767 0 0125.927-17.4385l.0003-.001a60.107 60.107 0 014.1392-.6601 39.8357 39.8357 0 0132.2578 10.6132 40.8203 40.8203 0 0112.8157 32.3604l-6.419 103.0039a4.46 4.46 0 01-2.398 3.7031c-7.3925 3.874-29.5995 14.5567-49.4242 14.5567z" fill="#3f3d56"/><path d="M346.2374 27.8917A30.1557 30.1557 0 00313.1848 9.308l7.744 6.2578c-9.6216.324-19.7496-.365-26.6194 6.3793 2.187-.0606 5.0535 4.6173 7.2406 4.5567-4.089.0808-7.7967 2.9538-9.6028 6.6232a18.8652 18.8652 0 00-1.114 11.997c.8076 4.0093 6.9681 13.4017 8.6263 17.1402-.2851-9.7702 18.9492-33.0744 28.3418-30.6424a25.7724 25.7724 0 00-11.9004 9.0353 34.9042 34.9042 0 0120.701-3.387 14.65 14.65 0 004.935.2762 6.0251 6.0251 0 003.572-9.6285z" fill="#2f2e41"/><path d="M301.753 236.5488a4.5035 4.5035 0 01-1.802-.3803l-46.6006-20.3404a4.4702 4.4702 0 01-2.5532-5.2768l30.8499-116.539a16.8654 16.8654 0 0120.9406-11.9034l12.3355 3.5205-8.6838 146.6807a4.5126 4.5126 0 01-2.146 3.5698 4.4662 4.4662 0 01-2.3404.669zM388.0006 210.55l-2.0503-7.73-2.9697-11.24-1.4302-5.39-2.9697-11.21-21.4302-80.97a16.8473 16.8473 0 00-20.94-11.9l-12.33 3.52 6.1098 103.17.6304 10.77.4 6.79v.01l.6396 10.71.9004 15.23a4.5304 4.5304 0 004.4897 4.24 4.5826 4.5826 0 001.8003-.38l46.5996-20.34a4.4663 4.4663 0 002.5503-5.28z" fill="#aee1c0"/><path fill="#ccc" d="M381.55 186.19l-50.929 13.38-.631-10.77 48.591-13.82 2.969 11.21zM385.95 202.82l-54.29 14.26-.639-10.71v-.01l51.96-14.78 2.969 11.24zM308.181 191.12l-.631 10.57-49.949-14.88 2.929-11.06 47.651 15.37zM307.14 208.65l-50.97-16.45-2.93 11.09 53.28 15.87.62-10.51z"/><path d="M257.059 219.704a10.7427 10.7427 0 007.0436-14.8908l23.962-75.2256-16.9915-3.5586-21.9689 73.7532a10.801 10.801 0 007.9548 19.9218z" fill="#ffb8b8"/><path d="M288.7297 92.6058c4.879.4976 7.6233 5.9835 6.4102 12.814l-5.821 32.7785c-.4365 2.457-2.4586 4.4026-4.1394 3.9825l-19.6904-4.922c-1.5152-.3788-2.0732-2.5314-1.2146-4.6853l11.8207-29.6535c2.5671-6.4398 7.9042-10.7968 12.6345-10.3142z" fill="#3f3d56"/><path d="M318.4005 0a31.9935 31.9935 0 0131.9746 31h6.0254a2 2 0 012 2v8a2 2 0 01-2 2h-68a2 2 0 01-2-2v-9a31.9998 31.9998 0 0132-32z" fill="#aee1c0"/><path d="M322.2242 197.8048h-14.1356a1.8178 1.8178 0 01-1.8158-1.6468l-2.8295-29.0018h23.4262l-2.8295 29.0015a1.8178 1.8178 0 01-1.8158 1.6472z" fill="#e6e6e6"/><path d="M326.832 170.8048h-23.3513a1.8265 1.8265 0 01-1.8243-1.8243v-4.3784a1.8265 1.8265 0 011.8243-1.8243h23.3514a1.8265 1.8265 0 011.8243 1.8243v4.3784a1.8265 1.8265 0 01-1.8243 1.8243z" fill="#ccc"/><path d="M315.4597 182.2515a10.5265 10.5265 0 011.6265.3192l37.646-32.284-2.2006-11.8454 17.4427-5.6576 5.9335 20.5913a8 8 0 01-3.4093 8.9753l-47.6775 30.1704a10.497 10.497 0 11-9.3613-10.2691z" fill="#ffb8b8"/><path d="M354.8302 95.3132c5.2116-1.4589 10.4192 2.508 12.1641 9.266l8.3734 32.4301c.6277 2.431-.5914 5.0145-2.4956 5.2884l-22.3066 3.2085c-1.7165.247-3.2289-1.5134-3.2918-3.8315l-.8661-31.9132c-.188-6.9306 3.3698-13.0338 8.4226-14.4483z" fill="#3f3d56"/><path d="M654.663 302.47a167.5062 167.5062 0 01-24.0754-44.9317 4.3026 4.3026 0 012.0318-5.1794l35.1453-18.8315a4.2466 4.2466 0 013.7255-.1513 4.3192 4.3192 0 012.4613 2.884 102.3283 102.3283 0 0022.4456 41.8908 4.318 4.318 0 011.0383 3.6465 4.2466 4.2466 0 01-2.1894 3.018l-35.1453 18.8317a4.3026 4.3026 0 01-5.4377-1.177z" fill="#ccc"/><path d="M657.0613 300.6679a1.2986 1.2986 0 001.622.335l35.1456-18.832a1.246 1.246 0 00.6526-.897 1.318 1.318 0 00-.325-1.128 105.34 105.34 0 01-23.1069-43.125 1.3186 1.3186 0 00-.758-.895 1.247 1.247 0 00-1.1104.046l-35.1448 18.8315a1.2983 1.2983 0 00-.6196 1.5371 164.5074 164.5074 0 0023.6445 44.1275z" fill="#fff"/><path d="M670.0719 260.402l-19.1416 8.4496a3.0033 3.0033 0 01-3.956-1.533l-.4734-1.0725a3.0033 3.0033 0 011.533-3.956l19.1416-8.4496a3.0033 3.0033 0 013.956 1.533l.4734 1.0725a3.0033 3.0033 0 01-1.533 3.956zM677.0719 273.402l-19.1416 8.4496a3.0033 3.0033 0 01-3.956-1.533l-.4734-1.0725a3.0033 3.0033 0 011.533-3.956l19.1416-8.4496a3.0033 3.0033 0 013.956 1.533l.4734 1.0725a3.0033 3.0033 0 01-1.533 3.956z" fill="#ccc"/><path d="M632.1786 262.5696a10.7427 10.7427 0 01-2.0622-16.343l-8.0725-114.5578 23.253 2.255.6387 112.1867a10.801 10.801 0 01-13.757 16.4591z" fill="#a0616a"/><path d="M627.3077 170.1617a4.4817 4.4817 0 01-1.8588-3.4006l-1.7038-30.8761a12.3986 12.3986 0 0124.3464-3.9268l7.4846 27.6049a4.505 4.505 0 01-3.1656 5.5207l-21.2907 5.7725a4.483 4.483 0 01-3.8121-.6945z" fill="#3f3d56"/><path fill="#a0616a" d="M587.676 403.408h-12.26l-5.832-47.288h18.094l-.002 47.288z"/><path d="M566.659 399.9046h23.644v14.8869h-38.5308a14.8869 14.8869 0 0114.8869-14.8869z" fill="#2f2e41"/><path fill="#a0616a" d="M633.676 403.408h-12.26l-5.832-47.288h18.094l-.002 47.288z"/><path d="M612.659 399.9046h23.644v14.8869h-38.5308a14.8869 14.8869 0 0114.8869-14.8869zM587.0968 379.5853l-13.4963-.6435a4.499 4.499 0 01-4.2859-4.4629c-3.558-54.9192-8.4858-113.8072-.9419-136.5566a4.501 4.501 0 015.1465-4.4854l53.9936 7.8379a4.4738 4.4738 0 013.8536 4.42c6.8935 26.9363 7.205 75.7818 6.9443 126.5341a4.5005 4.5005 0 01-4.5 4.5342h-14.55a4.4789 4.4789 0 01-4.4453-3.8008l-8.977-57.0674a3.5 3.5 0 00-6.9329.128l-7.1262 59.6025a4.5171 4.5171 0 01-4.4687 3.9658q-.1063 0-.2138-.0059z" fill="#2f2e41"/><path d="M596.5978 245.7006c-11.8994-6.6114-21.197-8.3487-25.68-8.796a4.418 4.418 0 01-3.0534-1.6728 4.478 4.478 0 01-.9311-3.4013l12.9375-96.0508a33.2191 33.2191 0 0119.3635-25.957 32.3059 32.3059 0 0131.3955 2.461q.665.4423 1.3052.9032a33.1782 33.1782 0 0112.6364 34.5733c-7.9335 32.455-10.6586 85.662-11.1245 95.999a4.4655 4.4655 0 01-2.918 4.0049 45.085 45.085 0 01-15.2258 2.7109 38.1246 38.1246 0 01-18.7053-4.7744z" fill="#3f3d56"/><circle cx="607.4195" cy="72.2198" r="24.561" fill="#a0616a"/><path d="M624.8 91.6513c-4.582 4.8808-13.0912 2.2607-13.6883-4.4071a8.0556 8.0556 0 01.0102-1.5557c.3082-2.9536 2.0146-5.635 1.6058-8.7536a4.5904 4.5904 0 00-.84-2.149c-3.6513-4.8893-12.2223 2.187-15.6683-2.2392-2.113-2.714.3708-6.9872-1.2506-10.0205-2.14-4.0036-8.4788-2.0287-12.4539-4.2212-4.4227-2.4395-4.1582-9.2253-1.2469-13.3527 3.5506-5.0336 9.7758-7.7195 15.9234-8.1066s12.253 1.2747 17.9923 3.5114c6.521 2.5414 12.9877 6.0536 17.0007 11.7876 4.8802 6.9731 5.3498 16.348 2.9091 24.5017-1.4847 4.96-6.5517 11.0193-10.2934 15.005z" fill="#2f2e41"/><path d="M644.2506 115.53c-.4302-2.02-4.1201-4.78-9.4-7.03a58.1353 58.1353 0 00-52.5 4.5 2.4796 2.4796 0 00-2.29 1.95l-17.7602 78.55-2.31 10.23-1.5298 6.77-2.31 10.2-1.23 5.45a2.5078 2.5078 0 002.2201 3.05l76.69 6.62c.0698 0 .1499.01.2197.01a2.5003 2.5003 0 002.48-2.34l.73-11.11.7803-11.88.3398-5.15.77-11.85 5.1099-77.84v-.07z" fill="#aee1c0"/><path d="M518.4158 120.4744a10.5262 10.5262 0 01.2393 1.6401l42.9575 24.782 10.4414-6.011 11.1311 14.5724-22.3372 15.9205-49.0079-38.6627a10.4958 10.4958 0 116.5758-12.2413z" fill="#a0616a"/><path d="M563.1468 144.7892a4.4817 4.4817 0 011.2932-3.6534l21.8634-21.8685a12.3986 12.3986 0 0119.168 15.5163l-15.57 23.9922a4.505 4.505 0 01-6.2244 1.325l-18.5043-12.0085a4.4829 4.4829 0 01-2.0259-3.3031z" fill="#3f3d56"/><path fill="#ccc" d="M639.15 193.5l-.77 11.85-78.39-1.62 2.31-10.23h76.85zM638.041 210.5l-.781 11.88-81.11-1.68 2.311-10.2h79.58z"/><path d="M607.9005 24.5a31.9935 31.9935 0 00-31.9746 31h-6.0254a2 2 0 00-2 2v8a2 2 0 002 2h68a2 2 0 002-2v-9a31.9998 31.9998 0 00-32-32z" fill="#aee1c0"/><path d="M108.1144 343.0562a39.063 39.063 0 01-37.7211-6.6448c-13.212-11.0892-17.3544-29.3585-20.7249-46.275l-9.9692-50.0356 20.8716 14.3714c15.0097 10.3351 30.3575 21.0013 40.75 35.9712s14.929 35.405 6.579 51.6031" fill="#e6e6e6"/><path d="M106.3303 403.6347c2.1125-15.3875 4.2847-30.9726 2.8029-46.525-1.316-13.8122-5.5299-27.3028-14.1088-38.3642a63.8194 63.8194 0 00-16.3739-14.8374c-1.6374-1.0336-3.1444 1.5613-1.5141 2.5904a60.6717 60.6717 0 0123.9989 28.9564c5.2249 13.2894 6.0639 27.776 5.1635 41.8933-.5445 8.5373-1.6985 17.0185-2.8613 25.489a1.5543 1.5543 0 001.0476 1.8451 1.5091 1.5091 0 001.8452-1.0476z" fill="#f2f2f2"/><path d="M85.9832 376.4061a28.7553 28.7553 0 01-25.0547 12.9314c-12.6832-.6021-23.2569-9.4541-32.7752-17.858L0 346.6221l18.6328-.8917c13.3996-.6413 27.145-1.2394 39.9076 2.8928s24.533 14.0769 26.8668 27.2873" fill="#e6e6e6"/><path d="M112.3004 412.4802c-10.1678-17.9912-21.9614-37.9863-43.0348-44.377a48.022 48.022 0 00-18.101-1.869c-1.9219.1657-1.442 3.128.4763 2.9627a44.6139 44.6139 0 0128.8865 7.6423c8.145 5.544 14.4866 13.2516 19.8542 21.4252 3.2878 5.0066 6.2327 10.2256 9.1783 15.4376.9413 1.6656 3.6928.4633 2.7405-1.2218z" fill="#f2f2f2"/><path d="M742.7036 416.5h-712a1 1 0 010-2h712a1 1 0 010 2z" fill="#ccc"/></svg>