<?xml version="1.0" encoding="utf-8"?>
<!-- Generator: Adobe Illustrator 22.0.0, SVG Export Plug-In . SVG Version: 6.00 Build 0)  -->
<svg version="1.1" id="Logo_JPB_Contorno_1_" xmlns="http://www.w3.org/2000/svg" xmlns:xlink="http://www.w3.org/1999/xlink"
	 x="0px" y="0px" viewBox="0 0 1023.9 378.1" style="enable-background:new 0 0 1023.9 378.1;" xml:space="preserve">
<style type="text/css">
	.st0{fill-rule:evenodd;clip-rule:evenodd;fill:#AEE1C0;}
	.st1{fill-rule:evenodd;clip-rule:evenodd;fill:#FFFFFF;}
	.st2{fill:#FFFFFF;}
	.st3{font-family:'Heavitas';}
	.st4{font-size:267.2246px;}
	.st5{letter-spacing:6;}
</style>
<g id="Contorno">
	<g>
		<polygon class="st0" points="975.9,3.7 0.9,3.7 0.9,333.7 45.9,378.7 1020.9,378.7 1020.9,48.7 		"/>
	</g>
</g>
<g id="Retângulo_1_">
	<g id="Retângulo_4_copiar_2">
		<g>
			<rect x="324.9" y="17.7" class="st1" width="645" height="310"/>
		</g>
		<g>
			<path class="st2" d="M964.9,22.7v300h-635v-300H964.9 M974.9,12.7h-655v320h655V12.7L974.9,12.7z"/>
		</g>
	</g>
	<g id="Retângulo_5_copiar_2">
		<g>
			<rect x="14.9" y="17.7" class="st1" width="310" height="310"/>
		</g>
		<g>
			<path class="st2" d="M319.9,22.7v300h-300v-300H319.9 M329.9,12.7H9.9v320h320V12.7L329.9,12.7z"/>
		</g>
	</g>
	<g id="Retângulo_4">
		<g>
			<rect x="361.9" y="54.7" class="st0" width="645" height="310"/>
		</g>
		<g>
			<path class="st2" d="M1001.9,59.7v300h-635v-300H1001.9 M1011.9,49.7h-655v320h655V49.7L1011.9,49.7z"/>
		</g>
	</g>
	<g id="Retângulo_5">
		<g>
			<rect x="51.9" y="54.7" class="st0" width="310" height="310"/>
		</g>
		<g>
			<path class="st2" d="M356.9,59.7v300h-300v-300H356.9 M366.9,49.7h-320v320h320V49.7L366.9,49.7z"/>
		</g>
	</g>
	<g id="Forma_9">
		<g>
			<polygon class="st1" points="9.9,322.7 9.9,332.7 46.9,369.7 56.9,369.7 56.9,322.7 			"/>
		</g>
	</g>
	<g id="Forma_10">
		<g>
			<polygon class="st1" points="974.9,12.7 964.9,12.7 964.9,59.7 1011.9,59.7 1011.9,49.7 			"/>
		</g>
	</g>
</g>
<g id="Nome_1_">
	<g id="Retângulo_3">
		<g>
			<rect x="825.5" y="144.5" class="st1" width="79.7" height="49.8"/>
		</g>
	</g>
	<g id="Retângulo_3_1_">
		<g>
			<rect x="825.5" y="214" class="st1" width="79.7" height="49.8"/>
		</g>
	</g>
	<g id="Retângulo_2">
		<g>
			<rect x="638.6" y="145.9" class="st1" width="91.5" height="65.5"/>
		</g>
	</g>
	<g id="JPB">
		<text transform="matrix(0.9982 0 0 1 420.8669 304.9531)" class="st2 st3 st4 st5">JPB</text>
	</g>
</g>
<g id="Logo_1_">
	<g id="Forma_5">
		<g>
			<path class="st1" d="M181.5,134.1c0,0-6.4-24-20-21.7c-57.1,9.8-70.3,83.4-62.6,105.6c17.7,51.5,119.2,42.4,119.2,42.4
				L181.5,134.1z"/>
		</g>
	</g>
	<g id="Forma_6">
		<g>
			<path class="st1" d="M242.6,123.1c-41.9-20.8-88.4-10-88.4-10s25.8,7.1,40,25.8c29,38.4,58,113.5,58,113.5s33.7-8.9,35.4-31
				C290.1,188.9,283.4,143.3,242.6,123.1z"/>
		</g>
	</g>
	<g id="Forma_7">
		<g>
			<path class="st1" d="M325.7,267.7c-2.2-20.4-35.3-33.8-35.3-33.8s-1.4,11.3-30.9,24.7c-23.1,10.5-62.9,13.3-94.7,8.1
				c-62.7-10.4-69.5-40-69.9-43c0,0-9.2,10.9-2.7,28.9c13.2,36.2,76.7,55.6,127.7,59.4C288.2,317,328.6,295.2,325.7,267.7z"/>
		</g>
	</g>
	<g id="Forma_3">
		<g>
			<path class="st0" d="M257.2,153.9c-39.9-51.1-123.3-46.1-123.3-46.1s41.6,19.2,46.8,48.7c4.4,25-12.3,67,14,94.5
				C231.2,289.2,314.8,227.6,257.2,153.9z"/>
		</g>
	</g>
	<g id="Forma_3_1_">
		<g>
			<path class="st1" d="M254,160.1c-31.4-42.1-100-47.9-100-47.9s33,18.6,36.7,46.9c3,22.4-12.2,61.6,10.4,86.9
				C232.4,281,301.8,224.2,254,160.1z"/>
		</g>
	</g>
	<g id="Forma_8">
		<g>
			<path class="st0" d="M239.2,181c-14.2-34.2-42.8-48.5-42.8-48.5s20.3,17.8,31.2,46.8c11.9,31.8,12,74.4,12,74.4
				S250.6,208.6,239.2,181z"/>
		</g>
	</g>
</g>
</svg>
